 <svg xmlns="http://www.w3.org/2000/svg" width="26.979" height="26.982" viewBox="0 0 26.979 26.982">
                            <g id="Calendar" transform="translate(0 0)">
                                <path id="Path_2239" data-name="Path 2239" d="M874.529,873.624a14.684,14.684,0,0,1,.525-1.783c.073-.17.444-.279.686-.294a.9.9,0,0,1,.988.7,8.587,8.587,0,0,1,.124,1.333H887.14c0-.33-.008-.641,0-.952a1.07,1.07,0,0,1,1.042-1.1,1.056,1.056,0,0,1,1.059,1.076c.011.313,0,.627,0,.949a19.274,19.274,0,0,1,2.117.187,5.139,5.139,0,0,1,4.1,5q.011,7.3,0,14.6a5.192,5.192,0,0,1-5.117,5.158q-8.376.023-16.751,0a5.2,5.2,0,0,1-5.1-5.125q-.014-7.324,0-14.648a5.174,5.174,0,0,1,5-5.1C873.872,873.615,874.255,873.624,874.529,873.624Zm-3.935,8.338v.633q0,5.241,0,10.482a3.122,3.122,0,0,0,3.326,3.325q8.11,0,16.219,0a3.114,3.114,0,0,0,3.217-3.22q0-5.32,0-10.64v-.578Zm.034-2.166H893.32c.378-2.842-1.545-4.452-4.074-4.005,0,.6,0,1.21,0,1.82,0,.747-.386,1.188-1.031,1.2-.663.009-1.069-.446-1.074-1.212,0-.609,0-1.217,0-1.83h-10.33v.982c0,.316.006.632,0,.948a1.054,1.054,0,1,1-2.1-.031c0-.628,0-1.256,0-1.873C872.179,875.333,870.24,876.984,870.628,879.8Z" transform="translate(-868.484 -871.533)"></path>
                                <path id="Path_2240" data-name="Path 2240" d="M978.7,1058.566c.333,0,.665-.008,1,0a1.051,1.051,0,1,1-.009,2.1c-.682.014-1.366.016-2.048,0a1.05,1.05,0,1,1,.008-2.1C978,1058.556,978.347,1058.565,978.7,1058.566Z" transform="translate(-965.196 -1038.86)"></path>
                                <path id="Path_2241" data-name="Path 2241" d="M1037.782,1058.574c.35,0,.7-.011,1.049,0a1.047,1.047,0,0,1,.029,2.094c-.716.024-1.435.024-2.151,0a1.047,1.047,0,0,1,.023-2.094C1037.082,1058.563,1037.432,1058.574,1037.782,1058.574Z" transform="translate(-1018.073 -1038.867)"></path>
                                <path id="Path_2242" data-name="Path 2242" d="M919.753,999.542c.332,0,.665-.011,1,0a1.082,1.082,0,0,1,1.048,1.035,1.068,1.068,0,0,1-1.02,1.061c-.716.022-1.435.024-2.151,0a1.048,1.048,0,0,1,.025-2.1C919.017,999.53,919.385,999.542,919.753,999.542Z" transform="translate(-912.43 -986.053)"></path>
                                <path id="Path_2243" data-name="Path 2243" d="M978.7,1001.621c-.332,0-.665.008-1,0a1.05,1.05,0,1,1-.022-2.1q1.023-.022,2.046,0a1.049,1.049,0,1,1,.022,2.1C979.4,1001.633,979.049,1001.621,978.7,1001.621Z" transform="translate(-965.218 -986.028)"></path>
                                <path id="Path_2244" data-name="Path 2244" d="M1037.792,999.528c.35,0,.7-.016,1.05,0a1.078,1.078,0,0,1,1.016,1.068,1.059,1.059,0,0,1-1,1.026c-.734.024-1.471.024-2.205,0a1.048,1.048,0,0,1,.038-2.094c.367-.017.735,0,1.1,0Z" transform="translate(-1018.05 -986.038)"></path>
                                <path id="Path_2245" data-name="Path 2245" d="M919.714,1060.643c-.35,0-.7.013-1.049,0a1.049,1.049,0,1,1,0-2.1c.7-.015,1.4-.017,2.1,0a1.066,1.066,0,0,1,1.037,1.042,1.083,1.083,0,0,1-1.033,1.052C920.414,1060.657,920.064,1060.642,919.714,1060.643Z" transform="translate(-912.429 -1038.832)"></path>
                            </g>
                        </svg>