<svg xmlns="http://www.w3.org/2000/svg" width="200" height="200" viewBox="0 0 200 200">
  <g id="_x38_59-Interface_x2C__Tick_x2C__User" transform="translate(-31.93 -25.5)">
    <g id="Group_5579" data-name="Group 5579" transform="translate(31.93 25.5)">
      <path id="Path_6059" data-name="Path 6059" d="M456.47,115.5a4.54,4.54,0,1,1-4.54,4.54A4.542,4.542,0,0,1,456.47,115.5Z" transform="translate(-261.01 -75.54)" fill="#f5a41d"/>
      <path id="Path_6060" data-name="Path 6060" d="M456.47,375.5a4.54,4.54,0,1,1-4.54,4.54A4.542,4.542,0,0,1,456.47,375.5Z" transform="translate(-261.01 -220.1)" fill="#b31f54"/>
      <path id="Path_6061" data-name="Path 6061" d="M401.01,435.5a9.08,9.08,0,1,1-9.08,9.08A9.078,9.078,0,0,1,401.01,435.5Z" transform="translate(-228.251 -253.66)" fill="#2394ae"/>
      <path id="Path_6062" data-name="Path 6062" d="M386.47,25.5a4.54,4.54,0,1,1-4.54,4.54A4.542,4.542,0,0,1,386.47,25.5Z" transform="translate(-222.83 -25.5)" fill="#b31f54"/>
      <path id="Path_6063" data-name="Path 6063" d="M142.85,55.5c-50.215,0-90.92,39.688-90.92,88.65s40.7,88.65,90.92,88.65,90.92-39.688,90.92-88.65S193.065,55.5,142.85,55.5Z" transform="translate(-42.85 -41.88)" fill="#d21e28"/>
      <path id="Path_6064" data-name="Path 6064" d="M170.149,241.7a68.1,68.1,0,1,1,68.219-68.1A68.162,68.162,0,0,1,170.149,241.7Z" transform="translate(-70.149 -71.475)" fill="#fff"/>
      <path id="Path_6066" data-name="Path 6066" d="M96.47,455.5a4.54,4.54,0,1,1-4.54,4.54A4.542,4.542,0,0,1,96.47,455.5Z" transform="translate(-64.689 -264.58)" fill="#b31f54"/>
      <path id="Path_6067" data-name="Path 6067" d="M63.28,45.5A11.35,11.35,0,1,1,51.93,56.85,11.349,11.349,0,0,1,63.28,45.5Z" transform="translate(-42.85 -36.42)" fill="#2394ae"/>
      <path id="Path_6068" data-name="Path 6068" d="M36.47,125.5a4.54,4.54,0,1,1-4.54,4.54A4.542,4.542,0,0,1,36.47,125.5Z" transform="translate(-31.93 -81.1)" fill="#b31f54"/>
      <path id="Path_6069" data-name="Path 6069" d="M36.47,375.5a4.54,4.54,0,1,1-4.54,4.54A4.542,4.542,0,0,1,36.47,375.5Z" transform="translate(-31.93 -220.1)" fill="#f5a41d"/>
      <g id="Group_5578" data-name="Group 5578" transform="translate(45.519 34.025)">
        <path id="Path_6070" data-name="Path 6070" d="M300.952,250.04a4.54,4.54,0,1,0-9.08,0,45.452,45.452,0,0,1-45.4,45.4,4.54,4.54,0,0,0-4.54,4.54v18.006c1.5.1,3.014.154,4.54.154s3.039-.055,4.54-.154V304.334A54.557,54.557,0,0,0,300.952,250.04Z" transform="translate(-191.989 -181.938)" fill="#ff9fa5"/>
        <path id="Path_6071" data-name="Path 6071" d="M131.93,173.6a4.54,4.54,0,1,0,9.08,0,45.452,45.452,0,0,1,45.4-45.4,4.54,4.54,0,0,0,4.54-4.54V105.654c-1.5-.1-3.014-.154-4.54-.154s-3.039.055-4.54.154v13.654A54.557,54.557,0,0,0,131.93,173.6Z" transform="translate(-131.93 -105.5)" fill="#ff9fa5"/>
      </g>
      <g id="delete" transform="translate(13.183 72)">
        <g id="Group_13638" data-name="Group 13638" transform="translate(63.818 0)">
          <path id="Path_8981" data-name="Path 8981" d="M317.247,84.577c-.032.01-11.066,3.262-11.1,3.272a2.948,2.948,0,0,0-1.978,2.782V95.6a1.767,1.767,0,0,0,1.767,1.767H319.37a1.767,1.767,0,0,0,1.767-1.767V87.366A2.947,2.947,0,0,0,317.247,84.577Z" transform="translate(-275.137 -74.54)" fill="#f5a41d"/>
          <path id="Path_8982" data-name="Path 8982" d="M160.161,164.371v33.294a7.666,7.666,0,0,0,7.658,7.658h18.614a7.666,7.666,0,0,0,7.658-7.658V164.371Z" transform="translate(-148.091 -145.323)" fill="#d24c54"/>
          <path id="Path_8983" data-name="Path 8983" d="M304.172,164.371v40.952h9.307a7.667,7.667,0,0,0,7.658-7.658V164.371Z" transform="translate(-275.137 -145.323)" fill="#d21e28"/>
          <g id="Group_13636" data-name="Group 13636" transform="translate(19.082 27.177)">
            <path id="Path_8984" data-name="Path 8984" d="M224.2,233.376a1.767,1.767,0,0,0-1.767,1.767V256.3a1.767,1.767,0,1,0,3.534,0V235.143A1.767,1.767,0,0,0,224.2,233.376Z" transform="translate(-222.43 -233.376)" fill="#dbdbdb"/>
            <path id="Path_8985" data-name="Path 8985" d="M290.937,233.376a1.767,1.767,0,0,0-1.767,1.767V256.3a1.767,1.767,0,1,0,3.534,0V235.143A1.767,1.767,0,0,0,290.937,233.376Z" transform="translate(-281.308 -233.376)" fill="#dbdbdb"/>
          </g>
          <g id="Group_13637" data-name="Group 13637" transform="translate(28.887 27.177)">
            <path id="Path_8986" data-name="Path 8986" d="M305.938,235.147v21.159a1.768,1.768,0,0,1-1.767,1.767V233.38a1.767,1.767,0,0,1,1.767,1.767Z" transform="translate(-304.171 -233.38)" fill="#fff"/>
            <path id="Path_8987" data-name="Path 8987" d="M357.678,233.376a1.767,1.767,0,0,0-1.767,1.767V256.3a1.767,1.767,0,1,0,3.534,0V235.143A1.767,1.767,0,0,0,357.678,233.376Z" transform="translate(-349.816 -233.376)" fill="#fff"/>
          </g>
          <path id="Path_8988" data-name="Path 8988" d="M89.544,12.744h0a4.723,4.723,0,0,0-5.827.666h0l-3.249,3.248-3.249,3.249a4.717,4.717,0,0,0,0,6.664l1.667,1.667,2.393-.247.106-2.252-1.666-1.666a1.179,1.179,0,0,1,0-1.666l3.249-3.249,3.248-3.249h0a1.178,1.178,0,0,1,1.665,0l1.667,1.667,2.185-.363.315-2.136a15.093,15.093,0,0,0-2.5-2.333Z" transform="translate(-74.424 -10.615)" fill="#4a4a4a"/>
          <path id="Path_8989" data-name="Path 8989" d="M124.2,12.743h0a4.721,4.721,0,0,0-5.827.667l-3.249,3.248,2.5,2.5,3.249-3.249a1.177,1.177,0,0,1,1.665,0l1.667,1.667,2.5-2.5a14.851,14.851,0,0,0-2.5-2.333Z" transform="translate(-109.076 -10.614)"/>
          <path id="Path_8990" data-name="Path 8990" d="M93.693,4.372,90.527,1.206a4.128,4.128,0,0,0-5.831,0L65.023,20.879a4.128,4.128,0,0,0,0,5.831l3.166,3.166a1.767,1.767,0,0,0,2.5,0l23-23a1.767,1.767,0,0,0,0-2.5Z" transform="translate(-63.818 -0.001)" fill="#d24c54"/>
          <path id="Path_8991" data-name="Path 8991" d="M173.217,1.206l3.166,3.166a1.767,1.767,0,0,1,0,2.5l-11.5,11.5-7.331-7.331,9.836-9.836a4.128,4.128,0,0,1,5.831,0Z" transform="translate(-146.508 0)" fill="#d21e28"/>
        </g>
      </g>
    </g>
  </g>
</svg>
