<svg id="Notifications" xmlns="http://www.w3.org/2000/svg" width="21.858" height="26.982" viewBox="0 0 21.858 26.982">
<path id="Path_2246" data-name="Path 2246" d="M1191.758,892.712c-.335.373-.7.728-1.046,1.072-.221.218-.45.443-.668.669a.983.983,0,0,0-.277,1.1,1.036,1.036,0,0,0,.969.7,2.036,2.036,0,0,0,.275.008h1.57l10.381,0h2.454q2.334,0,4.668,0h.015c.712,0,1.142-.108,1.371-.663s-.011-.925-.5-1.393l-.172-.166c-.44-.424-.9-.862-1.307-1.332a1.55,1.55,0,0,1-.385-.933c-.013-1.014-.011-2.045-.009-3.043,0-1.094,0-2.226-.013-3.337a8.42,8.42,0,0,0-3.58-6.969,8.74,8.74,0,0,0-3.665-1.484l-.175-.032v-.178c0-.135,0-.267,0-.4,0-.284.007-.553-.006-.822a1.019,1.019,0,0,0-1.036-1.1h0a1.025,1.025,0,0,0-1.033,1.106c-.011.256-.008.517-.005.793,0,.133,0,.271,0,.414v.169l-.164.039-.328.077c-.211.049-.411.1-.6.148a8.417,8.417,0,0,0-6.325,8.185c-.017,1.115-.016,2.249-.014,3.346,0,1.013,0,2.061-.01,3.092A1.542,1.542,0,0,1,1191.758,892.712Zm1.842,1.038a1.735,1.735,0,0,0,.644-1.693v-.032c0-.8,0-1.62.006-2.41.008-1.358.017-2.762-.021-4.14a6.472,6.472,0,0,1,6.127-6.571,6.269,6.269,0,0,1,4.588,1.694,6.027,6.027,0,0,1,2.047,4.23c.049,1.9.038,3.827.027,5.692q0,.754-.008,1.507a1.807,1.807,0,0,0,.638,1.725l.517.386h-15.1Z" transform="translate(-1189.699 -874.409)"></path>
<path id="Path_2247" data-name="Path 2247" d="M1274.069,1103.931a2.421,2.421,0,1,1-4.841,0Z" transform="translate(-1260.718 -1079.375)"></path>
</svg>