<svg xmlns="http://www.w3.org/2000/svg" width="200" height="200" viewBox="0 0 200 200">
  <g id="_x38_59-Interface_x2C__Tick_x2C__User" transform="translate(-31.93 -25.5)">
    <g id="Group_5579" data-name="Group 5579" transform="translate(31.93 25.5)">
      <path id="Path_6059" data-name="Path 6059" d="M456.47,115.5a4.54,4.54,0,1,1-4.54,4.54A4.542,4.542,0,0,1,456.47,115.5Z" transform="translate(-261.01 -75.54)" fill="#d21e28"/>
      <path id="Path_6060" data-name="Path 6060" d="M456.47,375.5a4.54,4.54,0,1,1-4.54,4.54A4.542,4.542,0,0,1,456.47,375.5Z" transform="translate(-261.01 -220.1)" fill="#2394ae"/>
      <path id="Path_6061" data-name="Path 6061" d="M401.01,435.5a9.08,9.08,0,1,1-9.08,9.08A9.078,9.078,0,0,1,401.01,435.5Z" transform="translate(-228.251 -253.66)" fill="#f5a41d"/>
      <path id="Path_6062" data-name="Path 6062" d="M386.47,25.5a4.54,4.54,0,1,1-4.54,4.54A4.542,4.542,0,0,1,386.47,25.5Z" transform="translate(-222.83 -25.5)" fill="#2394ae"/>
      <path id="Path_6063" data-name="Path 6063" d="M142.85,55.5c-50.215,0-90.92,39.688-90.92,88.65s40.7,88.65,90.92,88.65,90.92-39.688,90.92-88.65S193.065,55.5,142.85,55.5Z" transform="translate(-42.85 -41.88)" fill="#b31f54"/>
      <path id="Path_6064" data-name="Path 6064" d="M170.149,241.7a68.1,68.1,0,1,1,68.219-68.1A68.162,68.162,0,0,1,170.149,241.7Z" transform="translate(-70.149 -71.475)" fill="#fff"/>
      <path id="Path_6066" data-name="Path 6066" d="M96.47,455.5a4.54,4.54,0,1,1-4.54,4.54A4.542,4.542,0,0,1,96.47,455.5Z" transform="translate(-64.689 -264.58)" fill="#2394ae"/>
      <path id="Path_6067" data-name="Path 6067" d="M63.28,45.5A11.35,11.35,0,1,1,51.93,56.85,11.349,11.349,0,0,1,63.28,45.5Z" transform="translate(-42.85 -36.42)" fill="#f5a41d"/>
      <path id="Path_6068" data-name="Path 6068" d="M36.47,125.5a4.54,4.54,0,1,1-4.54,4.54A4.542,4.542,0,0,1,36.47,125.5Z" transform="translate(-31.93 -81.1)" fill="#2394ae"/>
      <path id="Path_6069" data-name="Path 6069" d="M36.47,375.5a4.54,4.54,0,1,1-4.54,4.54A4.542,4.542,0,0,1,36.47,375.5Z" transform="translate(-31.93 -220.1)" fill="#d21e28"/>
      <g id="Group_5578" data-name="Group 5578" transform="translate(45.519 34.025)">
        <path id="Path_6070" data-name="Path 6070" d="M300.952,250.04a4.54,4.54,0,1,0-9.08,0,45.452,45.452,0,0,1-45.4,45.4,4.54,4.54,0,0,0-4.54,4.54v18.006c1.5.1,3.014.154,4.54.154s3.039-.055,4.54-.154V304.334A54.557,54.557,0,0,0,300.952,250.04Z" transform="translate(-191.989 -181.938)" fill="#b9748d"/>
        <path id="Path_6071" data-name="Path 6071" d="M131.93,173.6a4.54,4.54,0,1,0,9.08,0,45.452,45.452,0,0,1,45.4-45.4,4.54,4.54,0,0,0,4.54-4.54V105.654c-1.5-.1-3.014-.154-4.54-.154s-3.039.055-4.54.154v13.654A54.557,54.557,0,0,0,131.93,173.6Z" transform="translate(-131.93 -105.5)" fill="#b9748d"/>
      </g>
      <g id="archive" transform="translate(67 53.193)">
        <path id="Path_8969" data-name="Path 8969" d="M15.374,86.973H3.5A3.488,3.488,0,0,1,0,83.493V31.781A3.488,3.488,0,0,1,3.5,28.3H15.374a3.488,3.488,0,0,1,3.5,3.479V83.494A3.488,3.488,0,0,1,15.374,86.973Z" transform="translate(0 -8.166)" fill="#f5a41d"/>
        <path id="Path_8970" data-name="Path 8970" d="M28.079,73.686V58.127a1.748,1.748,0,0,1,1.748-1.748h7.511a1.748,1.748,0,0,1,1.748,1.748V73.686a1.748,1.748,0,0,1-1.748,1.748H29.827A1.748,1.748,0,0,1,28.079,73.686Z" transform="translate(-24.148 -32.312)" fill="#ebf0f3"/>
        <path id="Path_8971" data-name="Path 8971" d="M38.486,357.471H33.51a2.623,2.623,0,0,1-2.623-2.623v-4.976a2.623,2.623,0,0,1,2.623-2.623h4.976a2.623,2.623,0,0,1,2.623,2.623v4.976A2.623,2.623,0,0,1,38.486,357.471Z" transform="translate(-26.563 -282.757)" fill="#929292"/>
        <path id="Path_8972" data-name="Path 8972" d="M39.936,357.47h-5.5a2.359,2.359,0,0,1-2.359-2.359v-5.5a2.332,2.332,0,0,1,.286-1.1,2.357,2.357,0,0,0-1.472,2.183v5.5a2.359,2.359,0,0,0,2.359,2.359h5.5a2.349,2.349,0,0,0,2.073-1.255A2.348,2.348,0,0,1,39.936,357.47Z" transform="translate(-26.563 -283.836)" fill="#394762"/>
        <g id="Group_13633" data-name="Group 13633" transform="translate(6.29 27.698)">
          <rect id="Rectangle_11995" data-name="Rectangle 11995" width="6.29" height="2.359" transform="translate(0 4.718)" fill="#b31f54"/>
          <rect id="Rectangle_11996" data-name="Rectangle 11996" width="6.29" height="2.359" fill="#b31f54"/>
          <rect id="Rectangle_11997" data-name="Rectangle 11997" width="6.29" height="2.359" transform="translate(0 9.435)" fill="#b31f54"/>
        </g>
        <path id="Path_8973" data-name="Path 8973" d="M348.887,86.973H337.01a3.488,3.488,0,0,1-3.5-3.479V31.781a3.488,3.488,0,0,1,3.5-3.479h11.877a3.488,3.488,0,0,1,3.5,3.479V83.494A3.488,3.488,0,0,1,348.887,86.973Z" transform="translate(-286.384 -8.166)" fill="#2394ae"/>
        <path id="Path_8974" data-name="Path 8974" d="M361.592,73.686V58.127a1.748,1.748,0,0,1,1.748-1.748h7.511a1.748,1.748,0,0,1,1.748,1.748V73.686a1.748,1.748,0,0,1-1.748,1.748H363.34A1.748,1.748,0,0,1,361.592,73.686Z" transform="translate(-310.531 -32.312)" fill="#ebf0f3"/>
        <path id="Path_8975" data-name="Path 8975" d="M372,357.471h-4.976a2.623,2.623,0,0,1-2.623-2.623v-4.976a2.623,2.623,0,0,1,2.623-2.623H372a2.623,2.623,0,0,1,2.623,2.623v4.976A2.623,2.623,0,0,1,372,357.471Z" transform="translate(-312.946 -282.757)" fill="#929292"/>
        <path id="Path_8976" data-name="Path 8976" d="M373.449,357.47h-5.5a2.359,2.359,0,0,1-2.359-2.359v-5.5a2.332,2.332,0,0,1,.286-1.1,2.357,2.357,0,0,0-1.472,2.183v5.5a2.359,2.359,0,0,0,2.359,2.359h5.5a2.349,2.349,0,0,0,2.073-1.255A2.347,2.347,0,0,1,373.449,357.47Z" transform="translate(-312.946 -283.836)" fill="#394762"/>
        <g id="Group_13634" data-name="Group 13634" transform="translate(53.42 27.698)">
          <rect id="Rectangle_11998" data-name="Rectangle 11998" width="6.29" height="2.359" transform="translate(0 4.718)" fill="#b31f54"/>
          <rect id="Rectangle_11999" data-name="Rectangle 11999" width="6.29" height="2.359" fill="#b31f54"/>
          <rect id="Rectangle_12000" data-name="Rectangle 12000" width="6.29" height="2.359" transform="translate(0 9.435)" fill="#b31f54"/>
        </g>
        <path id="Path_8977" data-name="Path 8977" d="M149.764,78.7l-11.7-2.052a3.481,3.481,0,0,1-2.836-4.031l9.026-50.932a3.5,3.5,0,0,1,4.051-2.822L160,20.912a3.481,3.481,0,0,1,2.836,4.031l-9.026,50.932A3.5,3.5,0,0,1,149.764,78.7Z" transform="translate(-116.034 0)" fill="#d21e28"/>
        <path id="Path_8978" data-name="Path 8978" d="M205.508,66.123l2.7-15.323a1.749,1.749,0,0,1,2.026-1.418l7.4,1.3a1.749,1.749,0,0,1,1.418,2.026l-2.7,15.323a1.749,1.749,0,0,1-2.026,1.418l-7.4-1.3A1.748,1.748,0,0,1,205.508,66.123Z" transform="translate(-176.471 -26.272)" fill="#ebf0f3"/>
        <path id="Path_8979" data-name="Path 8979" d="M176.751,348.253l-4.9-.864a2.623,2.623,0,0,1-2.127-3.038l.864-4.9a2.623,2.623,0,0,1,3.038-2.127l4.9.864a2.623,2.623,0,0,1,2.127,3.038l-.864,4.9A2.623,2.623,0,0,1,176.751,348.253Z" transform="translate(-145.737 -274.185)" fill="#929292"/>
        <path id="Path_8980" data-name="Path 8980" d="M178.109,347.526l-5.42-.956a2.359,2.359,0,0,1-1.913-2.733l.956-5.42a2.332,2.332,0,0,1,.474-1.037,2.357,2.357,0,0,0-1.829,1.894l-.956,5.42a2.359,2.359,0,0,0,1.913,2.733l5.42.956a2.349,2.349,0,0,0,2.259-.876A2.347,2.347,0,0,1,178.109,347.526Z" transform="translate(-145.485 -274.27)" fill="#394762"/>
        <g id="Group_13635" data-name="Group 13635" transform="translate(31.687 26.793)">
          <rect id="Rectangle_12001" data-name="Rectangle 12001" width="2.359" height="6.29" transform="translate(7.422 5.739) rotate(99.997)" fill="#b31f54"/>
          <rect id="Rectangle_12002" data-name="Rectangle 12002" width="2.359" height="6.29" transform="translate(8.239 1.092) rotate(99.997)" fill="#b31f54"/>
          <rect id="Rectangle_12003" data-name="Rectangle 12003" width="2.359" height="6.29" transform="translate(6.604 10.384) rotate(99.997)" fill="#b31f54"/>
        </g>
      </g>
    </g>
  </g>
</svg>
